HIERARCHY
ROOT Hips
{
	OFFSET -3.958830 18.904000 13.208200
	CHANNELS 6 Xposition Yposition Zposition Zrotation Yrotation Xrotation 
	JOINT LHipJoint
	{
		OFFSET 0.000000 0.000000 0.000000
		CHANNELS 3 Zrotation Yrotation Xrotation
		JOINT LeftUpLeg
		{
			OFFSET 1.800000 -1.400000 0.085000
			CHANNELS 3 Zrotation Yrotation Xrotation
			JOINT LeftLeg
			{
				OFFSET 2.215000 -6.000000 0.000000
				CHANNELS 3 Zrotation Yrotation Xrotation
				JOINT LeftFoot
				{
					OFFSET 2.500000 -6.900000 0.000000
					CHANNELS 3 Zrotation Yrotation Xrotation
					JOINT LeftToeBase
					{
						OFFSET 0.200000 -0.500000 1.950000
						CHANNELS 3 Zrotation Yrotation Xrotation
						End Site
						{
							OFFSET 0.000000 0.000000 0.000000
						}
					}
				}
			}
		}
	}
	JOINT RHipJoint
	{
		OFFSET 0.000000 0.000000 0.000000
		CHANNELS 3 Zrotation Yrotation Xrotation
		JOINT RightUpLeg
		{
			OFFSET -1.800000 -1.400000 0.085000
			CHANNELS 3 Zrotation Yrotation Xrotation
			JOINT RightLeg
			{
				OFFSET -2.215000 -6.000000 0.000000
				CHANNELS 3 Zrotation Yrotation Xrotation
				JOINT RightFoot
				{
					OFFSET -2.500000 -6.900000 0.000000
					CHANNELS 3 Zrotation Yrotation Xrotation
					JOINT RightToeBase
					{
						OFFSET -0.200000 -0.500000 1.950000
						CHANNELS 3 Zrotation Yrotation Xrotation
						End Site
						{
							OFFSET 0.000000 0.000000 0.000000
						}
					}
				}
			}
		}
	}
	JOINT LowerBack
	{
		OFFSET 0.000000 0.000000 0.000000
		CHANNELS 3 Zrotation Yrotation Xrotation
		JOINT Spine
		{
			OFFSET -0.087000 1.940000 -0.288900
			CHANNELS 3 Zrotation Yrotation Xrotation
			JOINT Spine1
			{
				OFFSET 0.000000 1.950000 0.060000
				CHANNELS 3 Zrotation Yrotation Xrotation
				JOINT Neck
				{
					OFFSET 0.000000 0.000000 0.000000
					CHANNELS 3 Zrotation Yrotation Xrotation
					JOINT Neck1
					{
						OFFSET 0.000000 1.600000 0.340000
						CHANNELS 3 Zrotation Yrotation Xrotation
						JOINT Head
						{
							OFFSET 0.000000 1.667000 -0.240000
							CHANNELS 3 Zrotation Yrotation Xrotation
							End Site
							{
								OFFSET 0.000000 0.000000 0.000000
							}
						}
					}
				}
				JOINT LeftShoulder
				{
					OFFSET 0.000000 0.000000 0.000000
					CHANNELS 3 Zrotation Yrotation Xrotation
					JOINT LeftArm
					{
						OFFSET 2.700000 1.550000 -0.730000
						CHANNELS 3 Zrotation Yrotation Xrotation
						JOINT LeftForeArm
						{
							OFFSET 5.450000 0.000000 0.000000
							CHANNELS 3 Zrotation Yrotation Xrotation
							JOINT LeftHand
							{
								OFFSET 3.450000 0.000000 0.000000
								CHANNELS 3 Zrotation Yrotation Xrotation
								JOINT LeftHandIndex1
								{
									OFFSET 0.750000 0.000000 0.000000
									CHANNELS 3 Zrotation Yrotation Xrotation
									End Site
									{
										OFFSET 0.000000 0.000000 0.000000
									}
								}
							}
						}
					}
				}
				JOINT RightShoulder
				{
					OFFSET 0.000000 0.000000 0.000000
					CHANNELS 3 Zrotation Yrotation Xrotation
					JOINT RightArm
					{
						OFFSET -2.700000 1.550000 -0.730000
						CHANNELS 3 Zrotation Yrotation Xrotation
						JOINT RightForeArm
						{
							OFFSET -5.450000 0.000000 0.000000
							CHANNELS 3 Zrotation Yrotation Xrotation
							JOINT RightHand
							{
								OFFSET -3.450000 0.000000 0.000000
								CHANNELS 3 Zrotation Yrotation Xrotation
								JOINT RightHandIndex1
								{
									OFFSET -0.750000 0.000000 0.000000
									CHANNELS 3 Zrotation Yrotation Xrotation
									End Site
									{
										OFFSET 0.000000 0.000000 0.000000
									}
								}
							}
						}
					}
				}
			}
		}
	}
}
MOTION
Frames: 4
Frame Time: 0.016667
-0.913340 17.972650 -3.457540 -1.907227 14.013256 -1.771652 -15.044182 12.055060 3.968747 -3.364366 -6.865285 -31.893956 1.958286 5.338168 35.468710 0.004123 4.905958 2.636725 0.434020 0.424310 0.257740 18.409152 -11.321683 2.859935 -3.178592 4.489641 -17.197916 7.794515 -10.748236 43.983914 -0.898922 -6.922551 1.860768 0.273340 -0.087620 0.045170 -4.278605 0.708633 -8.095172 10.054517 4.001622 22.556064 -6.030695 7.428487 9.048327 3.991684 0.731235 -7.197717 -0.930932 -6.426042 44.874016 4.308020 -7.885760 -9.933050 -22.808114 -2.257342 2.193112 -49.421094 -6.190177 -2.027596 -98.860153 -71.067217 69.388376 -3.758439 3.102579 0.194780 -0.119400 0.143290 0.115890 14.592260 5.183383 2.417975 32.961264 10.235915 -5.686448 38.195492 54.478299 15.893582 2.363934 -1.734231 0.046580 0.130880 -0.147850 -0.024020 
-0.893540 17.951610 -3.460220 -3.091312 15.708079 -2.576452 -15.039475 12.128674 3.638331 -1.957976 -6.237771 -29.922344 2.280057 5.345730 35.893299 0.002894 5.009130 2.586248 0.463000 0.458500 0.290690 18.438318 -11.042693 3.250623 -2.969876 6.634656 -20.987373 7.613251 -13.436456 54.774242 -1.359901 -8.738872 1.271217 0.286640 -0.121660 0.045100 -4.352490 0.468902 -8.245835 11.189786 2.894920 23.859697 -6.555650 6.621909 8.419555 4.227159 1.214909 -7.209658 -0.284548 -6.962577 45.810775 4.767710 -7.546870 -10.859130 -24.698163 -3.436132 1.938110 -50.400118 -8.192986 -1.591482 -101.818025 -71.803819 73.083330 -3.776463 2.930629 0.230280 -0.144400 0.179330 0.110930 16.018634 5.500398 2.621092 34.510564 8.812218 -6.499340 34.269667 49.762752 12.415221 2.365810 -1.657588 0.051890 0.132340 -0.161560 -0.038450 
-0.865640 17.897860 -3.451790 -4.478848 17.780832 -3.497201 -15.024357 12.169998 3.227503 -0.474365 -5.440015 -27.534787 2.376631 5.291494 35.102102 -0.031307 4.915838 2.611442 0.490870 0.492910 0.318650 18.486337 -10.718138 3.728996 -3.234596 8.636806 -24.753148 7.937132 -17.684210 66.470401 -1.966609 -11.000906 0.607059 0.303970 -0.149600 0.044040 -4.473019 0.247519 -8.407754 12.690350 1.583326 25.098238 -7.402380 5.624281 7.576734 4.502028 1.820068 -7.126001 0.629393 -7.786497 46.125834 5.557030 -7.378260 -11.940890 -27.226174 -4.741353 1.630965 -50.393967 -10.044307 -0.944752 -107.425661 -71.149304 78.643239 -3.739918 2.845148 0.262090 -0.168170 0.211190 0.108140 17.987833 5.694882 2.845380 35.577372 6.952227 -7.152015 30.687743 45.536066 9.666153 2.369368 -1.589373 0.054320 0.136270 -0.174560 -0.049920 
-0.852470 17.802220 -3.435540 -5.476817 19.858383 -4.304735 -15.040124 12.207136 2.906529 1.091863 -4.896334 -25.716447 2.222280 5.449378 34.865988 -0.031708 4.965344 2.595006 0.498880 0.501040 0.325520 18.502305 -10.386155 4.118252 -4.024288 9.815150 -28.132000 7.486575 -22.553874 77.695921 -2.569347 -13.224884 0.027998 0.307040 -0.153680 0.043520 -4.497377 -0.097755 -8.560192 13.151744 0.360757 25.935738 -7.961455 4.534344 6.932622 4.545003 2.089741 -7.204029 0.685381 -8.361805 46.746759 6.431770 -7.453470 -12.066710 -29.188843 -6.205713 1.515540 -50.652390 -11.979542 -0.239333 -113.922002 -70.564872 85.596465 -3.674942 2.806308 0.278310 -0.178440 0.223930 0.109350 19.892724 6.303827 3.285809 36.344357 4.967516 -7.512431 28.170012 41.174569 7.575004 2.379762 -1.531529 0.053060 0.140180 -0.178170 -0.051950 
